<svg xmlns="http://www.w3.org/2000/svg" xml:space="preserve" viewBox="0 0 784 784">
  <style>
    path {
      fill: #171c26;
    }

    @media (prefers-color-scheme: dark) {
      path {
        fill: #e8ebee;
      }
    }
  </style>
  <path d="M671.247 411.658c-5.702 3.472-4.817 9.474-5.483 14.411-1.756 13.018-4.766 25.788-7.298 38.634-1.108 5.625-.13 11.254-1.64 16.754-3.334 12.143-8.851 23.37-14.83 34.305-9.019 16.493-17.97 33.044-28.116 48.899-12.866 20.103-26.371 39.658-45.305 54.756-5.22 4.162-4.96 6.947 1.012 11.039 6.379 4.37 11.477 10.126 17.15 15.26.68.615 1.535 1.336 1.072 2.826-2.558-.096-3.874-2.209-5.584-3.58-6.217-4.985-11.93-10.606-19.039-14.45-2.495-1.35-4.516-3.521-7.45-.723-2.98 2.842 1.288 4.201 1.229 6.367-.462.153-.913.418-1.017.32-3.823-3.633-7.149-2.537-11.318.076-27.05 16.95-56.022 29.285-87.545 35.14-14.241 2.644-28.681 3.8-43.058 5.401-6.757.753-7.125 1.023-6.894 8.057.54 16.504-.957 32.963-1.046 49.452-.008 1.453.002 2.97-2.38 5.306v-52.576l-1.43-.016c-2.022 23.131-2.1 46.382-3.293 70.127-2.792-1.586-2.174-3.603-2.15-5.232.17-10.987.278-21.977.517-32.961.268-12.299.508-24.614.641-36.923.043-3.907-1.57-5.373-5.263-3.165-.723.432-1.365.932-2.28.664-8.752-2.558-17.816-1.636-26.73-2.364-12.826-1.047-25.344-3.795-37.521-7.7-21.576-6.92-42.278-15.988-62.279-26.688-3.847-2.058-5.722-5.92-9.323-8.133-3.144-1.933-5.403-1.957-7.736.986-1.75 2.206-3.74 4.22-5.44 6.113-2.15-.855-.779-2.07-1.594-3.388-13.454 6.645-20.157 20.659-32.066 29.847.008-3.107 2.925-3.97 3.413-6.308-2.597.724-3.251 4-7.126 4.076 11.127-13.47 25.18-23.37 34.237-38.38-3.251 1.903-4.736 5.205-8.716 6.904 1.33-3.52 3.545-5.324 5.263-7.372 2.234-2.665 1.965-4.503-.82-6.562-17.767-13.13-33.321-28.634-47.91-45.142-2.309-2.612-4.35-5.475-6.355-8.335-1.116-1.59-2.15-3.37-1.232-5.501 3.82-.498 3.454 3.677 5.747 4.835 1.03-1.801-.202-2.986-1-4.11-8.112-11.434-14.719-23.791-21.72-35.89-1.298-2.244-4.256-1.76-4.74-4.312-1.737-9.17-8.967-15.768-11.264-24.857-2.27-8.985-6.406-17.438-8.14-26.692-1.75-9.332-3.316-18.683-4.629-28.078-1.06-7.584-1.782-15.211-1.779-22.874.001-3.31-1.058-4.947-4.634-4.77-2.268.111-4.66.5-6.831-.576-.934-3.374.523-6.815-.726-10.005 1.839-2.068 4.005-1.405 6.152-1.187 5.085.515 6.855-1.225 6.42-6.15-1.364-15.422 1.23-30.533 3.572-45.666 2.05-13.242 6.352-25.836 11.064-38.303 1.045-2.764 1.272-5.535-1.12-7.329-6.181-4.633-7.818-11.75-10.393-18.281-6.432-16.315-4.03-32.347 2.265-48.12.443-1.11.619-2.672 3.193-2.767-5.757 15.606-8.352 31.233-2.178 47.21q-.219-2.205-.435-4.41c-.145-1.49-.312-2.98-.427-4.472-1.45-18.844 4.717-35.732 13.359-51.985 12.905-24.272 33.84-37.602 59.825-44.294 12.377-3.188 24.713-5.537 37.478-2.72 2.117.468 3.828-.292 5.58-1.482 27.354-18.572 57.473-30.875 89.608-37.933 13.759-3.021 27.963-4.122 42.01-5.672 7.894-.872 8.686-1.392 8.855-9.264.064-3.022-1.128-6.911 3.631-8.177 2.854 3.704-1.215 9.502 4.81 13.315l4.304-41.358c2.518 2.297 1.777 4.888 1.618 7.333-.403 6.208-1.939 12.282 1.095 18.517 1.535 3.154-.107 7.185-.598 10.818-.99 7.316.293 8.996 7.457 8.54 20.926-1.332 41.822-3.132 62.752-4.379 9.557-.57 19.131-2.115 28.74-1.037l.155 1.885-67.823 5.145q-.06.683-.123 1.364c5.222 1.36 10.657 1.756 16.046 2.004 5.82.268 11.665.18 17.493.014 5.656-.16 11.3-.74 16.956-.905 5.566-.162 11.14-.035 16.803.698-10.748 2.857-22.259.45-34.491 4.436 6.834 2.58 12.353 4.524 17.766 6.728 27.375 11.145 53.415 24.828 77.665 41.75 4.184 2.92 6.826 3.63 10.998-.203 8.087-7.427 16.666-14.312 24.016-22.533 1.058-1.183 2.066-2.708 4.452-2.257.245 2.61-1.658 4.207-3.137 5.698-9.03 9.105-15.32 20.54-24.902 29.155-3.172 2.852-.817 4.586 1.18 6.41 11.934 10.911 23.147 22.545 33.27 35.13 12.598 15.662 22.339 33.158 30.294 51.546 12.924 29.872 19.212 61.45 22.833 93.629 1.134 10.078 1.052 10.12 11.13 10.014 7.332-.078 14.661-.264 21.992-.39 1.792-.03 3.616-.252 6.13.868-3.093 1.727-5.84 1.552-8.512 1.7-3.857.214-7.295.51-11.124 2.66-3.77 2.117-9.4.898-14.354 1.02l16.205 2.143c.936 1.817-.911 1.691-1.122 2.536 7.008 1.188 14.158-1.904 21.625.736-1.887 2.168-4.095 1.77-6.08 1.858-9.315.413-18.635.726-27.947 1.182-1.394.068-3.683-.87-3.582 2.34m-195.774-34.683c16.424-12.75 31.584-27.168 50.047-38.962-1.654 6.152-6.122 7.985-9.819 10.601 4.914.196 7.786-2.66 10.203-6.11.74-1.057.895-2.512 2.563-2.736 5.375-.72 8.656-4.619 12.175-8.136.664-.663 1.281-1.154 1.055-2.473-.712-4.149 7.358-10.62 11.174-8.905 3.48 1.563 4.585-1.657 6.665-2.847 1.096-.627 2.46-1.717 1.772-3.206-1.025-2.217-3.34-2.717-5.487-2.8-3.817-.15-7.664.279-11.468.022-13.5-.913-26.941 1.19-40.426.64-3.786-.154-4.618 1.287-4.171 5.163.482 4.174-.518 8.518-.87 12.788-3.269-4.526-2.947-9.646-4.025-14.427-.868-3.844-2.234-4.027-4.92-.879-1.086-4.486-4.267-4.661-7.793-4.568-4.336.115-8.62.805-12.92 1.026-11.437.59-22.903 1.12-34.346.937-9.035-.144-17.798 2.512-26.86 1.786-3.496-.28-7.276.162-8.536 6.444-.823-4.532-2.055-6.166-5.356-5.691-9.881 1.422-19.86 1.413-29.82 1.515-1.893.02-4.09.161-5.038-2.094.405-1.79 2.554-.616 3.234-2.42-7.251 0-14.352.31-21.413-.086-7.234-.405-14.367-1.76-21.66.034-3.658.9-7.798 2.211-10.872-2.032-.884-1.221-2.854-.775-4.243-.157-1.776.79-2.15 2.445-1.94 4.208.237 1.974.941 3.954.826 5.895-.208 3.48 1.074 4.941 4.573 5.695 10.203 2.2 13.505 7.395 11.81 17.727-.416 2.532-.645 4.855 1.52 6.91 14.443 13.715 24.986 30.707 38.132 45.532 9.271 10.455 17.684 21.667 26.877 32.195 5.35 6.127 11.929 7.04 19.256 3.762 3.793-1.696 7.496-3.595 11.302-5.261 4.863-2.13 7.037-5.31 2.377-11.308-.423-.544-1.41-1.096-.311-2.29 1.28 1.033 2.636 1.973 3.808 3.104 2.502 2.411 4.484 2.659 8.202 1.182 6.417-2.55 10.28-8.037 14.152-12.397 9.071-10.21 19.686-18.336 30.571-27.38m-30.668 45.354c-5.91 5.15-5.843 6.401.662 11.113 2.29 1.66 4.67 3.199 6.935 4.892 13.467 10.062 26.32 21.118 40.579 29.89 9.168 5.64 16.56 13.603 26.283 18.284 1.766.85 3.687 2.11 3.972 4.223.316 2.347 1.887 3.368 3.483 4.562 13.458 10.071 27.719 19.045 40.68 29.801 1.328 1.103 2.818 2.498 5.373 1.278 0-1.433.169-3.084-.031-4.69-.598-4.803 2.061-10.928-5.255-13.15-.602-.183-1.015-1.705-1.127-2.651-.294-2.471-.66-4.988-.489-7.452.901-12.929 1.705-25.873 3.035-38.762 1.388-13.45.515-26.902.809-40.35.09-4.113-1.92-5.61-5.478-5.036-6.887 1.111-13.047-1.914-19.647-2.986 7.538-2.873 15.858-2.222 23.254-5.791-10.03-2.955-20.431-1.947-30.429-2.977-.21-1.87 1.341-1.306 1.534-2.184-1.775-.522-3.77-.51-5.714-2.119 9.637-1.74 18.81-.592 27.9-1.27 5.5-.41 9.008-3.464 9.512-9.023.511-5.63.457-11.316 1.079-16.93 1.168-10.537-2.446-20.78-1.754-31.212.419-6.32.437-12.52-.605-18.924-3.45-.124-5.867 1.52-8.046 3.623-7.2 6.95-15.005 13.176-22.971 19.209-1.743 1.32-3.417 2.688-4.216 4.814-1.408 3.74-4.087 6.41-7.232 8.703-8.47 6.176-17.153 12.086-25.346 18.612-8.175 6.511-15.847 13.652-23.758 20.497-10.42 9.016-22.893 15.427-32.992 26.006m205.014-35.538c-.656-3.427-1.793-6.842-1.88-10.284-.31-12.128-3.462-23.63-7.089-35.055-.38-1.196-.426-3.332-1.88-3.171-3.827.423-2.824-2.262-3.17-4.177-3.67-20.295-9.611-39.735-20.972-57.24-13.64-21.019-28.903-40.693-46.884-58.224-3.146-3.068-5.627-2.822-8.551-.11-2.558 2.373-4.908 4.95-7.833 6.953-15.942 10.915-31.88 21.828-50.011 28.941-3.427 1.344-4.487 3.262-3.128 6.906 3.32 8.903 5.298 18.193 7.35 27.452.31 1.398.914 2.78-.478 4.21-.563-.691-.97-1.194-1.38-1.696-.383-.468-.691-1.206-1.429-.415-.102 5.485.464 6.792 4.176 6.865 7.47.148 14.98.451 22.264-2.009 5.674-1.915 12.507-2.652 17.11-.252 5.389 2.81 10.278 1.704 15.384 2.294 1.155.133 2.364.07 3.462.393 3.529 1.034 6.633 1.2 7.593-3.263 2.195.52 1.827 4.146 3.697 3.136 3.982-2.153 8.794 2.339 12.33-1.916.406-.487 1.602-.644 2.328-.484 4.874 1.074 8.762-.856 12.467-3.707 1.064-.818 2.14-2.293 4.531-.869-4.175 5.555-10.95 7.675-15.792 12.208 2.218 2.299 5.318.602 7.917 2.455-3.942 1.164-7.276.734-10.55.57-3.14-.159-5.357 1.297-6.405 3.853-2.022 4.936-3.475 10.364-2.41 15.508.85 4.11.551 7.852-.102 11.725-1.14 6.758-2.371 13.645-.637 20.297 1.1 4.217 1.285 8.098.566 12.249-.225 1.295-1.454 2.708.343 4.545 2.027-3.471-.01-7.778 2.916-11.51.875 6.151.215 11.319-1.441 16.401-2.828 8.678 1.119 14.357 10.019 14.466 5.66.069 11.308.313 16.966.648 11.636.689 23.294.309 34.942-.282 4.395-.223 6.51-2.024 5.66-7.411m-371.57 99.953c20.145-15.563 39.655-31.955 60.565-46.517 2.78-1.937 3.17-3.688 1.184-6.566-14.214-20.599-32.004-38.286-47.15-58.12-1.636-2.142-3.419-2.925-6.435-1.858-5.996 2.122-10.688.18-14.158-5.206-2.526-3.922-5.472-7.491-8.34-11.151-2.733-3.49-6.79-6.117-7.906-10.75-1.09-4.526-3.89-8.195-7.676-10.042-5.908-2.882-9.547-8.07-14.392-11.982-.775-.625-1.422-1.407-2.183-2.051-2.21-1.866-4.12-1.175-4.18 1.458-.15 6.55-1.79 13.376 1.885 19.498 1.87 3.117 1.715 6.24 1.365 9.595-.892 8.556-2.392 17.088-1.53 26.741 2.769-11.728 1.609-23.06 4.9-34.118 1.188 1.6.938 2.977.84 4.206-1.023 12.762-1.906 25.54-3.298 38.264-.81 7.403-1.182 7.376 5.433 9.22.152.042.171.56.252.855-7.483 2.693-7.91 3.84-3.347 9.55-2.502.762-3.76 2.224-3.847 5.038-.93 30.257-2.011 60.51-2.98 90.766-.123 3.825-.267 7.59-.875 11.408-.74 4.659-.473 9.466.637 15.71 9.21-7.273 18.416-12.91 25.461-20.543 7.807-8.456 16.121-16.068 25.775-23.405m-60.623 49.74c-1.268-5.764-3.969-11.214-3.965-17.248.01-21.15-.042-42.302.177-63.45.117-11.316.747-22.626 1.127-33.94.095-2.834-.089-5.304-3.978-5.523-19.098-1.073-38.198-2.053-57.334-1.932-4.537.03-5.86 1.737-5.175 6.395.484 3.292 1.275 6.539 1.73 9.834 3.191 23.154 8.54 45.763 17.414 67.43 6.934 16.93 14.85 33.405 24.087 49.22 4.813 8.241 10.256 16.043 17.595 22.251 3.467 2.933 4.151 7.656 7.268 10.579a582 582 0 0 0 28.486 25.053c3.093 2.543 5.426 2.592 8.687.08 14.615-11.262 28.964-22.99 46.26-30.135 2.696-1.113 2.18-2.906 1.511-4.899-1.426-4.257-3.13-8.446-4.208-12.79-1.593-6.418-2.386-7.227-8.897-6.993-18.796.675-37.592 1.346-56.39 1.992-5.678.195-6.21.779-5.646 6.535.31 3.165 1.713 6.36-.256 10.095-2.59-4.228-1.56-8.77-2.898-12.823-1.656.173-3.123 1.043-4.62-.415-2.541-2.475-5.52-2.834-8.687-.997-2.16 1.253-3.758.541-5.021-1.764 2.378-2.959 6.273-4.842 7.178-9.274-6.792-2.274-14.219-.435-20.841-3.265 6.692-.655 13.306-.594 19.919-.687 2.397-.033 5.175.525 6.477-3.33m147.311-72.92c-2.486-2.916-5.144-5.706-7.409-8.785-1.995-2.714-3.643-2.542-6.136-.605-24.98 19.417-51.432 36.884-75.778 57.147-1.674 1.393-3.364 2.878-5.823 2.57.068-2.898 3.62-3.402 3.296-6.155-5.334.353-32.663 22.215-34.71 27.697 1.839.461 3.536-2.13 5.18-.66 5.815 5.208 12.76 2.25 19.055 2.397 7.38.173 14.82-.2 22.192.414 6.142.511 7.956-1.02 9.177-6.827.753-3.578-2.924-7.333 1.07-10.818 3.51 4.25 2.537 10.598 6.944 14.932 2.963-3.823-.129-7.503.2-11.03.752-8.063.313-8.104 2.5-10.092-.759 4.638 1.995 7.782 2.16 11.763.29 6.947 3.036 9.168 9.717 10.545 4.333.892 8.332-1.243 12.212-.657 7.142 1.08 14.238.107 21.172-.308 9.564-.572 19.159.933 28.692-.884 5.033-.959 10.37-.428 15.388-.26 7.837.263 15.62.226 23.425-.184 1.492-.078 3.271.12 4.193-1.755-2.057-1.34-3.753-.356-5.512-.015-3.08.598-6.084 1.327-9.24-.308-6.525-3.379-10.448-12.831-7.354-20.025 1.538-3.579.796-5.757-1.483-8.449-10.976-12.963-21.796-26.058-33.128-39.647m216.244 9.003c-1.225 15.454-1.15 30.936-1.09 46.422.018 4.264-.104 8.432-1.287 12.76-2.574 9.409-.092 11.382 9.864 10.55 3.935-.33 7.968-1.253 12.136.265 3.666 1.335 7.198.097 9.44-3.615 2.667-4.413 5.628-8.655 8.16-13.142 18.418-32.649 25.477-68.672 30.995-105.13.528-3.484-.837-5.747-4.925-5.727-18.81.092-37.59 1.707-56.412 1.04-3.222-.113-4.753 1.296-4.825 4.78-.351 16.958-.771 33.916-2.056 51.797m-119.148 45.94c1.719 1.881 3.487 3.205 5.906.934 5.828-5.47 12.044-10.577 17.45-16.433 6.843-7.411 6.698-7.8 13.712-.633 5.613 5.735 12.097 11.128 11.482 20.648-3.821 1.928-9.417 2.765-8.567 9.437 3.246 1.075 5.396-.818 7.636-2.11 8.332-4.803 8.546-4.83 15.455 2.035 1.292 1.283 2.382 2.774 3.528 4.199 1.066 1.324 2.194 2.733 4.024 2.646 9.4-.444 18.794-.998 27.995-1.503.521-1.844-.473-2.391-1.207-2.98-10.007-8.017-20.005-16.047-30.065-23.998-18.675-14.761-37.433-29.418-56.071-44.224-12.118-9.627-24.015-19.532-36.155-29.13-5.572-4.407-7.374-4.57-12.525.174-4.599 4.235-10.747 5.01-15.718 8.432-3.28 2.257-4.564 3.423-1.778 6.673a3993 3993 0 0 1 20.366 23.991c1.308 1.551 2.766 2.026 4.828 1.79 11.688-1.346 22.152 8.45 19.538 19.57-1.502 6.388.716 10.016 4.35 14.001 1.797 1.97 3.549 3.979 5.816 6.48M168.197 324.673c-1.433-.44-2.942-.718-4.284-1.35-3.208-1.512-4.833-.539-5.83 2.823-6.263 21.124-11.722 42.345-11.026 64.682.139 4.46 1.772 5.274 5.78 4.853 7.738-.814 15.522-1.205 23.29-1.708 11.334-.735 22.593 1.096 33.913 1.049 3.78-.016 5.525-1.53 5.602-5.278a556 556 0 0 0-.381-35.448c-.37-8.594-2.814-17.574 2.242-25.781-1.798-3.294-4.412-4.067-7.964-3.252-3.55.815-7.078 1.665-10.769 2.027-10.107.992-19.875-1.293-30.573-2.617m281.58-126.978c-9.557-14.373-20.52-27.46-34.673-37.581-1.826-1.306-3.874-3.201-6.31-1.84-2.244 1.252-1.623 3.84-1.632 5.934-.124 27.126-.302 54.25.858 81.367.188 4.394 1.443 6.467 6.117 6.117 17.47-1.307 34.627-4.301 51.455-9.172 3.576-1.036 3.962-3.215 2.761-6.533-4.775-13.193-10.71-25.805-18.575-38.292m-178.424 53.757c-1.063.923-.695 3.05-2.761 3.258-1.05-2.025-.09-4.015.38-5.779 2.814-10.55.097-19.78-6.379-28.132-2.916-3.762-5.09-8.189-9.4-10.78-.786-.472-1.766-1.526-1.744-2.285.122-4.204-3.032-5.722-5.895-7.214-10.942-5.704-22.594-5.946-34.512-4.267-16.822 2.37-31.668 8.337-42.899 21.819-10.82 12.99-16.578 27.884-17.795 44.612-.241 3.314-2.957 6.083-1.83 9.641 6.254 19.741 16.54 35.526 38.643 40 8.786 1.779 17.491 2.376 26.11-.653 1.952-.685 4.307-1.101 4.688-4.447-4.05-1.54-8.616-1.17-12.724-2.823-2.195-.883-4.331-2.296-7.018-2.277-5.533.04-10.458-1.658-15.573-4.222-14.28-7.16-20.254-19.5-20.493-34.028-.364-22.067 10.435-39.089 28.287-51.622 6.37-4.473 13.327-7.656 21.062-9.61 4.82-1.218 9.296-2.581 14.05-.942 7.385 2.546 14.694 5.32 21.996 8.1 1.477.562 3.232 1.032 3.66 2.74.053 2.207-2.976.903-2.897 3.031 1.2 1.699 2.144 3.713 4.673 4.007 1.93.225 2.748 1.783 3.41 3.308 1.728 3.973 2.931 8.096 3.903 12.341 3.245 14.172-1.812 26.877-6.426 39.758-2.41 6.727-6.829 11.32-13.102 14.31-4.507 2.149-9.038 4.267-13.666 6.131-3.377 1.36-4.568 3.114-2.019 6.581 2.897-1.892 5.888 1.228 8.986-.228 2.317-1.09 4.376-.336 6.567.923 7.525 4.323 10.788 3.942 17.575-1.56 1.294-1.05 2.657-2.028 3.851-3.181 3.065-2.959 2.32-6.608-1.763-7.75-1.253-.35-1.94-.683-1.571-1.751.96-2.775-2.532-2.016-2.835-3.328 4.895-6.375 6.788-13.808 9.841-20.51 1.37-.498 2.347 2.681 3.23.454 1.745-4.406 5.327-8.546 2.39-13.625m252.448-65.723c-24.81-13.849-50.906-24.092-79.75-29.687.661 1.915.719 2.446.995 2.812a38 38 0 0 0 2.552 3.069c18.611 19.866 31.27 43.282 40.8 68.543 2.21 5.855 3.341 6.547 9.161 3.632 16.125-8.076 30.628-18.747 45.474-28.849 3.808-2.59 3.657-4.669-.074-7.37a182 182 0 0 0-19.158-12.15m-180.263 60.12c12.204 3.587 24.704 5.3 37.37 6.094 4.041.253 6.001-1.25 5.719-5.393-.068-.994-.002-1.999.028-2.998.63-20.804-.175-41.627.908-62.43.392-7.533.063-15.103.063-23.131-3.806 1.48-6.271 3.64-8.64 5.95-11.24 10.96-21.238 22.935-30.073 35.932-7.603 11.183-14.349 22.82-19.82 35.172-2.669 6.026-2.256 6.56 3.982 8.098 3.233.797 6.449 1.666 10.463 2.707m-15.418-54.125c10.248-13.013 19.427-26.869 31.399-38.713-3.451-1.663-3.452-1.665-6.583-1.131-28.632 4.878-54.828 15.996-79.59 30.878-3.096 1.862-3.284 3.227-1.151 6.153 5.186 7.117 11.975 14.165 12.373 23.036.511 11.413 7.23 15.37 16.07 18.813 5.879 2.29 7.294 2.387 9.6-3.485 4.788-12.194 13.891-22.189 17.882-35.551m-96.419 83.335c2.748-3.337 5.57-6.616 8.231-10.021 11.293-14.448 6.014-40.28-6.684-48.545-4.79-3.118-7.995-3.06-11.358.893-8.41 9.887-16.717 19.848-24.53 30.226-6.014 7.987-11.669 16.204-16.74 24.806-2.52 4.275-1.768 8.144 1.983 9.215 4.911 1.401 9.097 4.913 14.417 4.53.151 1.068-1.639 1.282-.257 2.544 7.13.135 14.414-.235 20.925-4.234 4.605-2.83 9.032-5.948 14.013-9.414m341.173 308.318c6.692-6.269 12.59-13.27 18.485-20.262 1.408-1.67 4-4.519 1.47-5.875-3.496-1.875-5.712-5.456-9.632-6.518-1.949-.528-4.739-1.381-4.713 1.451.035 3.866-3.514 4.679-4.318 7.657-1.398-1.208-1.355-2.413-1.44-3.557-.558-7.514-.867-7.806-8.494-8.015-7.154-.195-14.321-.18-21.455-.668-7.557-.516-7.678-.57-5.872 6.668.045.178-.358.467-.691.875-1.764-.771-3.268-2.14-5.545-.022-5.099 4.746-10.59 9.091-16.108 13.356-3.383 2.614-4.222 5.009-.556 7.905 1.333 1.053 2.182 2.347 2.93 3.911 2.135 4.468 4.712 8.684 9.025 11.476 5.461 3.533 10.723 7.35 15.318 11.958 2.836 2.845 5.168 2.577 8.144.145 7.863-6.425 15.638-12.937 23.452-20.485m-241.961 4.303c5.59 9.298 12.647 17.524 19.135 26.165 8.952 11.924 19.955 21.812 31.252 31.397 1.597 1.355 3.353 3.188 5.728 2.266 2.465-.958 2.147-3.57 2.397-5.628.299-2.467.263-4.978.303-7.472.293-17.977-1.432-35.891-1.689-53.85-.098-6.827-.928-7.477-7.909-7.202-14.71.58-28.908 4.095-43.172 7.25-1.773.392-3.502 1.064-5.184 1.767-2.378.993-2.83 2.626-.861 5.307m99.585 47.309c2.374-2.785 4.895-5.458 7.094-8.374 8.321-11.039 16.42-22.197 20.279-35.807.874-3.085.61-4.862-2.51-6.352-7.967-3.807-16.135-7.085-24.404-10.144-5.38-1.99-11.03-2.46-16.664-2.812-3.316-.207-6.33.32-6.323 4.956.037 23.293-1.433 46.57-.745 69.87.135 4.567 1.577 5.3 5.5 2.658 6.067-4.086 12.186-8.134 17.773-13.995m54.489-342.46c-1.827-1.788-2.925-3.885-3.442-6.451a472 472 0 0 0-4.243-18.985c-.881-3.599-2.695-5.106-6.922-3.797-7.765 2.405-15.735 4.18-23.666 6.013-10.882 2.515-21.887 4.232-33.099 4.214-4.376-.007-6.287 2.182-6.237 6.488.047 3.992.042 7.999-.245 11.978-.443 6.135-.039 6.716 6.35 6.76 15.129.106 30.258.231 45.387.232 7.155 0 14.314-.178 21.464-.454 3.21-.123 6.235-.84 4.653-5.998m-181.539 71.519c.42.883.606 2.208 1.3 2.578 4.076 2.173 7.752 4.593 8.24 9.1 6.9-1.448 2.757 5.307 5.714 6.648.752-.696 2.054-1.694 2.91.116 2.462 5.212 8.171 8.609 8.151 15.204 6.552-3.07 3.98 2.717 5.267 5.064 4.171-1.416 3.992 3.222 6.205 4.799 2.453 1.747.359 5.78 2.643 8.013 1.619-.744.296-3.268 2.783-3.483 1.2 1.799.817 4.681 4.538 5.288 1.837.3 5.574 2.95 5.29 6.897-.065.913.235 2.368 1.315 2.44 3.999.268 2.87 3.352 3.258 5.577s-.538 4.683 1.375 6.99c2.865-2.065 5.618-2.347 7.927 1.363-4.829 3.174-2.04 5.583.754 8.103 1.64-.668.495-3.557 3.075-3.492 2.2 3.155-.642 7.767 2.479 10.87 2.213-1.771.004-4.535 2.328-6.303 2.004 4.57 7.792 6.762 6.31 12.67 1.982.358 2.04-1.87 3.753-1.202 2.539 3.609.533 8.95 3.64 12.627 1.938-1.14.149-3.517 2.297-4.463 2.153 3.708 1.716 8.053 3.144 12.515 1.157-2.856-1.325-5.514 1.094-7.687.39.525.759.857.918 1.27.298.773.824 1.68.65 2.381-1.911 7.655 5.767 11.267 6.918 17.642 5.967-.862 9.7-4.782 13.764-8.084 1.7-1.381 1.696-3.16.334-4.86-1.145-1.429-2.27-2.888-3.548-4.194-13.539-13.832-27.078-27.659-39.239-42.76-10.857-13.481-21.776-26.914-32.701-40.34a10904 10904 0 0 0-30.672-37.516c-1.25-1.522-2.768-3.532-4.932-1.646-2.575 2.245-6.047 3.654-7.282 7.875m48.538-94.493c-2.324-.144-4.737.064-6.955-.498-6.932-1.757-15.321 1.164-20.542-6.4-.635-.919-2.528-.456-3.686.437-1.52 1.174-2.267 2.728-2.659 4.626-1.642 7.954-2.445 16.102-6.203 23.549-1.833 3.632.63 4.68 3.857 4.768 5.81.157 11.625.26 17.425.607 16.783 1.007 33.576 1.512 50.389 1.277 2.382-.033 4.968-.058 5.047-3.388.129-5.486.354-10.985-.42-16.45-.314-2.208-1.368-3.399-3.808-3.83-10.468-1.849-20.926-3.711-32.445-4.698m123.098 377.019c9.048-3.79 18-7.797 26.605-12.516 7.868-4.313 15.74-8.633 23.438-13.238 3.635-2.174 3.444-4.004-.16-6.231-4.8-2.968-9.681-5.807-14.492-8.76-3.048-1.87-5.716-2.06-8.475.753-3.576 3.645-7.74 6.613-11.74 9.166-3.931-.703-5.09-3.65-6.648-6.43-1.5-2.677-3.32-5.298-6.918-6.774-10.465 18.867-21.17 37.314-37.419 52.645 1.66.261 2.609.634 3.492.515 10.944-1.47 21.376-4.791 32.317-9.13M279.65 610.2c-2.181 1.526-4.4 3.002-6.534 4.59-3.035 2.259-3.307 4.114.446 6.214 22.476 12.572 46.195 22.05 70.992 28.893 1.812.5 3.7 1.682 5.61-.022-.115-.54-.109-1.072-.337-1.468-.412-.712-.899-1.407-1.468-2-14.326-14.907-25.27-32.129-34.458-50.529-1.625-3.254-3.453-3.783-6.725-2.209-9.48 4.561-18.408 9.997-27.526 16.53M502.602 577.9c-2.374-1.875-4.197-4.226-5.87-6.72-5.923-8.828-13.411-16.398-19.956-24.73-2.118-2.697-5.002-3.974-8.39-2.745-3.182 1.155-6.42 1.567-9.759 1.73-1.785.087-4.014.181-3.998 2.711.013 1.983 1.283 3.423 3.368 3.744 1.928.297 3.996.82 3.914 3.049-.341 9.291 7.989 13.779 11.584 20.91 2.96 5.873 8.314 10.568 12.74 15.67 7.722 8.904 7.765 8.867 15.962.28 5.847-6.126 5.879-6.622.405-13.899m-125.285-23.144c3.141-.358 6.283-.713 9.424-1.076 1.643-.19 2.932-.872 3.01-2.714.093-2.187-1.424-2.797-3.24-2.966a21 21 0 0 0-2.494-.088c-20.14.506-40.281 1.008-60.42 1.56-1.653.045-3.312.358-4.94.687-1.488.3-2.6 1.274-1.91 2.838 1.915 4.342 2.536 9.234 5.416 13.427 17.891-5.452 35.757-10.018 55.154-11.668m-82.589-299.848c-1.252-1.119-3.716-.806-3.822-3.286-.15-3.522-2.005-3.317-4.174-1.733-1.729 1.262-1.867 3.418-2.519 5.297-2.886 8.323-5.917 16.637-10.834 23.995-3.529 5.281-3.136 8.731 2.426 11.933 2.74 1.577 5.61 2.931 7.722 5.392.976 1.137 1.893 2.543 3.68 1.93 1.594-.547 2.19-2.041 2.377-3.549 1.5-12.103 4.875-23.767 8.303-35.412.763-2.594-.142-3.764-3.159-4.567m156.118 284.087c5.788-.008 11.648 1.69 17.484-.054-1.117-5.123-4.946-7.864-6.753-11.886-1.836-4.086-5.347-7.138-8.402-10.408-9.178-9.825-10.062-9.76-18.703.72-2.258 2.739-1.933 4.862-.053 7.96 1.52 2.504 4.726 1.851 5.728 4.583 1.7 4.634 6.021 6.603 10.7 9.085M192.63 235.017c1.677-.582 1.768.446 1.276 1.485-.727 1.538-1.717 2.95-2.595 4.416 8.494-8.418 16.092-17.503 25.137-25.943-18.371-2.983-44.912 25.232-41.342 42.802 5.454-8.258 11.033-15.514 17.524-22.76M485.23 532.72c3.316-4.168 7.058-7.936 11.137-11.333 3.172-2.64 3.126-5.183.373-7.96-2.635-2.658-5.43-4.862-8.938-1.366-4.612 4.595-9.373 8.951-15.084 12.217-2.71 1.55-2.886 3.696-.67 6.159 3.117 3.463 7.763 4.872 10.821 8.505 1.105 1.312 3.65 1.506 5.615-.725-1.422-1.365-2.913-2.749-3.254-5.497m8.74 21.837c2.23 2.677 4.373 5.432 6.717 8.004 1.565 1.719 3.463 2.772 5.5.499 4.01-4.476 8.942-7.91 13.392-11.89 1.115-.997 2.48-1.949 1.767-3.718-.64-1.585-2.143-1.857-3.684-2.084-3.851-.566-6.668 1.393-9.45 3.604-2.697 2.143-5.001 2.858-7.285-.942-2.06-3.429-8.434-3.586-12.25-.737.585 2.956 3.232 4.475 5.294 7.264m-55.28-56.799c-1.841-1.656-4.051-2.912-5.383-5.122-.54-.895-1.49-1.62-2.497-1.306-5.098 1.588-8.719 5.249-12.218 9.034-2.446 2.644 1.118 3.575 1.58 5.393.164.644.357 1.28.543 1.918 1.545 5.29 5.65 6.559 9.977 3.121 2.469-1.96 4.793-4.215 7.53-5.697 3.794-2.055 3.742-4.126.467-7.341M289.631 348.762c1.571-1.243.353-4.134 2.904-4.885 2.785 1.793-.241 4.353.96 6.519.659-.225 1.47-.823 2.09-.665 6.756 1.722 13.346-2.551 14.259-9.35.511-3.81-2.792-7.99-5.978-7.563-6.406.86-14.366 9.499-14.235 15.944m-17.24-46.932c-6.948 3.362-11.941 9.275-17.957 13.856-1.808 1.377-1.723 3.728-.075 5.328 1.746 1.696 3.76.928 5.406-.44a985 985 0 0 0 13.717-11.608c2.877-2.48 2.3-4.833-1.09-7.136M419.52 547.258c-1.658.015-3.345-.162-4.966.088-2.521.389-6.873-1.536-6.97 2.39-.108 4.407 4.4 2.557 7.073 2.935 6.976.986 14.673-2.274 20.837 3.62.715.682 1.932.61 2.689-.283.585-.691.626-1.672.032-2.297-2.75-2.898-4.591-7.089-9.763-6.54-2.624.278-5.3.07-8.932.087M278.34 327.59c.217 2.576 1.34 4.653 4.109 4.642 4.038-.016 9.996-6.366 10.146-10.379.053-1.401-.09-3.053-1.6-3.24-3.958-.488-7.211 2.037-10.814 3.105-2.524.748-1.521 3.32-1.841 5.872m54.797 136.007c6.561-4.662 13.476-8.863 19.7-14.456-2.468-3.266-4.761-3.99-7.112-.917-6.67 8.722-15.723 14.722-24.12 21.484-1.91 1.539-4.102 2.898-4.81 5.645a7028 7028 0 0 0 16.342-11.756m109.575 26.411c-1.433-2.27-3.153-3.266-6.006-.962 1.768 2.363 2.677 5.37 6.025 6.282 1.572-1.67.93-3.192-.019-5.32M211.543 301.444c.571 4.416 3.935 2.014 5.821 1.99 2.591-.033 2.815-2.159 1.956-4.31-2.88-.493-4.993.97-7.777 2.32M597.99 553.82c.611-1.105 1.934-2.347-.055-3.251-1.522-.692-2.937.017-4.028 1.187-.807.867-1.63 1.925-.571 3.04 1.522 1.606 2.976.887 4.654-.976"/><path d="M134.212 322.336c1.165-3.415 1.751-6.664 4.84-8.866l-6.728 23.055c-1.25-3.98-1.25-3.98 1.888-14.189M339.44 317.737c-3.168.318-6.03.594-10.118-.462 4.375-1.627 7.526-1.447 10.706-.787.095.02.24.285.203.366-.122.277-.315.523-.79.883M503.601 379.614c2.82-1.853 4.97-4.14 8.19-4.676-4.834 4.944-10.094 9.284-16.404 12.253 1.602-3.622 4.827-5.424 8.214-7.577M522.672 367.618c-1.238-2.841 1.043-3.939 2.693-4.984 2.916-1.848 6.092-3.287 9.41-4.599-3.272 3.992-7.698 6.626-12.103 9.583"/>
</svg>